# xmcd
#
# Track frame offsets:
#	182
#	16782
#	30392
#	47095
#	62982
#	81647
#	95660
#	110405
#	131860
#	145377
#	161257
#	173442
#
# Disc length: 2550 seconds
#
# Revision: 0
# Processed by: cddbd v1.4PL0 Copyright (c) Steve Scherf et al.
# Submitted via: dBpowerAMP V4.0
#
DISCID=9d09f40c
DTITLE=Lansings - You're Not What Mama Had In Mind
DYEAR=1994
DGENRE=Country
TTITLE0=You're Not What Mama Had In Mind
TTITLE1=On the Bottom Looking Down
TTITLE2=Still Making Memories
TTITLE3=If you Love me tonight (love me forever)
TTITLE4=The Hands of a Stranger
TTITLE5=Wet Blankets on the Fire
TTITLE6=On the Radio
TTITLE7=My Old Ways
TTITLE8=Sundown on Saturday Night
TTITLE9=Maybe the Rain
TTITLE10=Mary Kathleen
TTITLE11=More More More More More
EXTD=
EXTT0=
EXTT1=
EXTT2=
EXTT3=
EXTT4=
EXTT5=
EXTT6=
EXTT7=
EXTT8=
EXTT9=
EXTT10=
EXTT11=
PLAYORDER=
